<?xml version="1.0" encoding="UTF-8"?>
<svg id="Layer_2" data-name="Layer 2" xmlns="http://www.w3.org/2000/svg" viewBox="0 0 1920 1080">
  <defs>
    <style>
      .cls-1, .cls-2 {
        fill: none;
      }

      .cls-2 {
        stroke: #000;
        stroke-linecap: round;
        stroke-linejoin: round;
      }
    </style>
  </defs>
  <g id="Layer_2-2" data-name="Layer 2">
    <g>
      <path class="cls-1" d="M1398.36,638.62c10.99,6.15,23.43,9.23,37.31,9.23,17.17,0,31.64-4.47,43.43-13.4,11.79-8.93,19.77-20.32,23.91-34.2h-41.39c-5.33,10.83-14.31,16.26-26.92,16.26-8.75,0-16.09-2.73-22.07-8.23-5.98-5.5-9.39-13.08-10.18-22.79h103.81c.71-4.23,1.04-8.95,1.04-14.22,0-14.22-3.04-26.84-9.1-37.83-6.05-10.99-14.59-19.45-25.58-25.43h-.15c-10.84-5.89-23.11-8.82-36.8-8.82s-26.77,3.04-37.68,9.08c-10.91,6.08-19.41,14.72-25.49,26-6.08,11.28-9.12,24.35-9.12,39.25s3.08,27.72,9.23,39c6.15,11.28,14.72,19.99,25.74,26.11ZM1434.65,532.17c20.69,0,34.57,13.55,34.57,31.18h-68.88s1.78-31.18,34.31-31.18Z"/>
      <path class="cls-1" d="M1298.42,636.86c14.7-7.59,26.05-18.28,34.09-32.12,8-13.81,12.02-30,12.02-48.5s-4.02-34.77-12.02-48.76c-8-14-19.39-24.79-34.09-32.38-14.7-7.59-31.75-11.35-51.14-11.35h-64.47v184.47h64.47c19.39,0,36.44-3.8,51.14-11.35ZM1219.71,496.94c10.05-.01,18.76.12,29.96.09,35.14-.09,55.92,25.32,55.86,61.18-.08,46.74-32.55,60.49-55.24,60.49h-30.57v-121.75Z"/>
      <path class="cls-1" d="M1036.61,561.58c-.22.82-.42,1.65-.6,2.5-.07.33-.12.66-.18.99-.15.79-.28,1.59-.4,2.4-.07.54-.12,1.09-.18,1.64-.07.65-.14,1.28-.19,1.95-.08,1.25-.13,2.53-.13,3.84.09-5.02.7-9.46,1.7-13.41,0,.03-.02.07-.03.1Z"/>
      <polygon class="cls-1" points="1570.2 570.73 1629.24 570.73 1629.24 541.21 1570.2 541.21 1570.2 493.25 1647.68 493.25 1647.68 463.74 1533.31 463.74 1533.31 648.21 1570.2 648.21 1570.2 570.73"/>
      <path class="cls-1" d="M1691.37,485.58c6.46,0,11.84-2.07,16.12-6.16,4.28-4.1,6.42-9.22,6.42-15.31s-2.14-11.22-6.42-15.31c-4.28-4.1-9.67-6.16-16.12-6.16s-11.84,2.07-16.12,6.16c-4.28,4.09-6.42,9.22-6.42,15.31s2.14,11.22,6.42,15.31c4.28,4.09,9.67,6.16,16.12,6.16Z"/>
      <rect class="cls-1" x="1673.51" y="504.32" width="36.89" height="143.89"/>
      <path class="cls-1" d="M353.75,692.48c80.06,0,144.96-64.9,144.96-144.96s-64.9-144.96-144.96-144.96-144.96,64.9-144.96,144.96,64.9,144.96,144.96,144.96ZM270.64,543.34c1.56-7.84,8.93-13.19,16.92-13.19h50.36v-52.97c0-10.28,9.36-18.39,20.01-16.26,7.84,1.56,13.19,8.93,13.19,16.92v52.31h50.95c8,0,15.36,5.35,16.92,13.19,2.12,10.66-5.98,20.01-16.26,20.01h-51.61v49.66c0,10.28-9.36,18.39-20.01,16.26-7.84-1.56-13.19-8.93-13.19-16.92v-49h-51.02c-10.28,0-18.39-9.36-16.26-20.01Z"/>
      <path class="cls-1" d="M1032.15,641.06c10.07,6.33,21.16,9.53,33.27,9.53,10.76,0,20.17-2.2,28.33-6.59,8.13-4.39,14.46-10.23,18.96-17.46v21.66h36.89v-195.54h-36.89v69.48c-5.01-6.89-11.79-12.36-20.28-16.52-8.49-4.13-17.42-6.22-26.76-6.22-12.3,0-23.46,3.09-33.53,9.23-10.03,6.18-17.97,14.96-23.79,26.42-5.82,11.46-8.71,24.56-8.71,39.38s2.89,28.25,8.71,39.79c5.82,11.54,13.73,20.47,23.79,26.83ZM1034.94,574.89s0,0,0,0c0,0,0,0,0,0,0-1.31.05-2.58.13-3.84.04-.66.12-1.3.19-1.95.06-.55.1-1.1.18-1.64.11-.81.25-1.61.4-2.4.06-.33.12-.66.18-.99.18-.85.38-1.68.6-2.5.04-.13.06-.28.1-.41-.03.1-.04.21-.07.31.18-.68.35-1.37.56-2.03,6.39-21.24,24.88-26.72,36-26.72,0,0,38.48-2.36,38.48,42.69,0,32.62-22.68,42.69-38.48,42.69-17.15,0-38.79-12.09-38.26-43.2,0,0,0,0,0-.01Z"/>
      <polygon class="cls-1" points="647.84 528.2 697.39 648.21 723.99 648.21 773.28 528.2 773.28 648.21 810.18 648.21 810.18 463.74 768.53 463.74 710.03 600.9 651.5 463.74 610.95 463.74 610.95 648.21 647.84 648.21 647.84 528.2"/>
      <path class="cls-1" d="M871.05,641.01c11.11,6.2,23.61,9.3,37.6,9.3,17.3,0,31.88-4.5,43.76-13.5,11.88-9,19.92-20.48,24.09-36.56h-39.55c-5.76,13.8-15.46,19.66-29.07,19.66-9.45,0-17.38-2.95-23.83-8.89-6.46-5.94-10.15-14.13-10.99-25.53h106.11c.7-3.28,1.03-7.97,1.03-13.21,0-14.13-3.03-26.67-9.04-37.6-6.01-10.92-14.5-19.33-25.42-25.27h0c-10.92-5.94-23.28-8.89-37.08-8.89s-26.97,3.06-37.96,9.15c-10.99,6.12-19.55,14.83-25.68,26.19-6.12,11.36-9.19,24.54-9.19,39.55s3.1,27.93,9.3,39.29c6.2,11.36,14.83,20.14,25.94,26.31ZM907.61,532.17c20.69,0,34.57,13.55,34.57,31.18h-68.88s1.78-31.18,34.31-31.18Z"/>
      <path d="M0,1080h1920V0H0v1080ZM1710.4,648.21h-36.89v-143.89h36.89v143.89ZM1675.24,448.79c4.28-4.1,9.67-6.16,16.12-6.16s11.84,2.07,16.12,6.16c4.28,4.09,6.42,9.22,6.42,15.31s-2.14,11.22-6.42,15.31c-4.28,4.09-9.67,6.16-16.12,6.16s-11.84-2.07-16.12-6.16c-4.28-4.1-6.42-9.22-6.42-15.31s2.14-11.22,6.42-15.31ZM1533.31,463.74h114.37v29.52h-77.48v47.96h59.03v29.52h-59.03v77.48h-36.89v-184.47ZM1372.5,534.26c6.08-11.28,14.57-19.92,25.49-26,10.91-6.04,23.98-9.08,37.68-9.08s25.96,2.93,36.8,8.82h.15c10.99,5.98,19.53,14.44,25.58,25.43,6.05,10.99,9.1,23.61,9.1,37.83,0,5.27-.33,9.99-1.04,14.22h-103.81c.79,9.7,4.2,17.29,10.18,22.79,5.98,5.5,13.32,8.23,22.07,8.23,12.61,0,21.59-5.43,26.92-16.26h41.39c-4.14,13.88-12.12,25.27-23.91,34.2-11.79,8.93-26.25,13.4-43.43,13.4-13.88,0-26.33-3.08-37.31-9.23-11.02-6.12-19.59-14.83-25.74-26.11-6.15-11.28-9.23-24.09-9.23-39s3.04-27.97,9.12-39.25ZM1182.81,463.74h64.47c19.39,0,36.44,3.76,51.14,11.35,14.7,7.59,26.09,18.39,34.09,32.38,8,14,12.02,30.26,12.02,48.76s-4.02,34.69-12.02,48.5c-8.04,13.85-19.39,24.53-34.09,32.12-14.7,7.56-31.75,11.35-51.14,11.35h-64.47v-184.47ZM1008.36,535.07c5.82-11.46,13.76-20.25,23.79-26.42,10.07-6.14,21.23-9.23,33.53-9.23,9.33,0,18.26,2.08,26.76,6.22,8.49,4.17,15.26,9.64,20.28,16.52v-69.48h36.89v195.54h-36.89v-21.66c-4.5,7.22-10.83,13.06-18.96,17.46-8.16,4.39-17.57,6.59-28.33,6.59-12.11,0-23.2-3.2-33.27-9.53-10.07-6.36-17.97-15.3-23.79-26.83-5.82-11.54-8.71-24.97-8.71-39.79s2.89-27.91,8.71-39.38ZM845,535.86c6.12-11.36,14.68-20.07,25.68-26.19,10.99-6.09,24.17-9.15,37.96-9.15s26.16,2.95,37.08,8.89h0c10.92,5.94,19.41,14.35,25.42,25.27,6.01,10.92,9.04,23.46,9.04,37.6,0,5.24-.33,9.92-1.03,13.21h-106.11c.85,11.4,4.54,19.59,10.99,25.53,6.46,5.94,14.39,8.89,23.83,8.89,13.61,0,23.32-5.87,29.07-19.66h39.55c-4.17,16.09-12.21,27.56-24.09,36.56-11.88,9-26.45,13.5-43.76,13.5-13.98,0-26.49-3.1-37.6-9.3-11.11-6.16-19.74-14.94-25.94-26.31-6.2-11.36-9.3-24.28-9.3-39.29s3.06-28.19,9.19-39.55ZM610.95,463.74h40.55l58.53,137.16,58.5-137.16h41.65v184.47h-36.89v-120l-49.29,120h-26.6l-49.55-120v120h-36.89v-184.47ZM353.75,402.56c80.06,0,144.96,64.9,144.96,144.96s-64.9,144.96-144.96,144.96-144.96-64.9-144.96-144.96,64.9-144.96,144.96-144.96Z"/>
      <path d="M907.61,532.17c-32.53,0-34.31,31.18-34.31,31.18h68.88c0-17.62-13.88-31.18-34.57-31.18Z"/>
      <path d="M1434.65,532.17c-32.53,0-34.31,31.18-34.31,31.18h68.88c0-17.62-13.88-31.18-34.57-31.18Z"/>
      <path d="M286.9,563.35h51.02v49c0,8,5.35,15.36,13.19,16.92,10.66,2.12,20.01-5.98,20.01-16.26v-49.66h51.61c10.28,0,18.39-9.36,16.26-20.01-1.56-7.84-8.93-13.19-16.92-13.19h-50.95v-52.31c0-8-5.35-15.36-13.19-16.92-10.66-2.12-20.01,5.98-20.01,16.26v52.97h-50.36c-8,0-15.36,5.35-16.92,13.19-2.12,10.66,5.98,20.01,16.26,20.01Z"/>
      <path d="M1034.94,574.89s0,0,0,0c0-1.31.05-2.58.13-3.84-.08,1.25-.13,2.53-.13,3.84Z"/>
      <path class="cls-2" d="M1035.07,571.05c.04-.66.12-1.3.19-1.95"/>
      <path class="cls-2" d="M1035.43,567.47c.11-.81.25-1.61.4-2.4"/>
      <path d="M1073.2,618.1c15.8,0,38.48-10.07,38.48-42.69,0-45.05-38.48-42.69-38.48-42.69-11.12,0-29.61,5.48-36,26.72-.21.66-.38,1.35-.56,2.03-1,3.95-1.61,8.39-1.7,13.41,0,0,0,0,0,0,0,0,0,0,0,.01-.53,31.11,21.11,43.2,38.26,43.2Z"/>
      <path d="M1036.7,561.17c-.04.13-.06.28-.1.41,0-.03.02-.07.03-.1.03-.1.04-.21.07-.31Z"/>
      <path class="cls-2" d="M1035.26,569.1c.06-.55.1-1.1.18-1.64"/>
      <path class="cls-2" d="M1035.83,565.07c.06-.33.12-.66.18-.99"/>
      <path class="cls-2" d="M1036.61,561.58c-.22.82-.42,1.65-.6,2.5"/>
      <path d="M1305.52,558.21c.06-35.85-20.72-61.27-55.86-61.18-11.2.03-19.9-.1-29.96-.09v121.75h30.57c22.7,0,55.16-13.74,55.24-60.49Z"/>
    </g>
  </g>
</svg>